<svg xmlns="http://www.w3.org/2000/svg" viewBox="0 0 571.15 85.6"><defs><style>.cls-1{fill:#ed1c24;}.cls-2{fill:#fff;}</style></defs><g id="Layer_2" data-name="Layer 2"><g id="Layer_1-2" data-name="Layer 1"><path class="cls-1" d="M58.07,82.82,53,66.28H23.42L17.75,82.82H0L28.61,2.66H48.05L76.3,82.82ZM38.15,20.64H38L27.77,52.52h20.4Z"/><path class="cls-1" d="M80.4,82.82V1.69H96.1V82.82Z"/><path class="cls-1" d="M136.42,43.7H151V60.61c0,12.55-7.25,23.78-24,23.78-17.38,0-24.26-11.11-24.26-23.91V7.36h15.45V23.42H151V34.53H118.19V58.92c0,7.48,2.66,11.83,9,11.83s9.18-4.23,9.18-11.59Z"/><path class="cls-2" d="M216.82,82.82l-.36-8c-3.86,6.76-13,10.75-24,10.75-22.22,0-36.34-20.65-36.34-43C156.1,19,169.62,0,195.57,0c19.08,0,33.81,11.35,35,27.41h-16.9c-.84-7.49-8.93-13.53-18.11-13.53-13.4,0-22.33,10.39-22.33,29.46,0,13.16,6.64,28.13,22.21,28.13,11,0,19.56-8.33,19.56-18.35H197.26V39.72h33.45v43.1Z"/><path class="cls-2" d="M251.23,57.23c.48,8.93,5.55,14.72,13.28,14.72,5.07,0,9.53-2.53,10.62-6.64h16.18c-3.62,12.2-13.4,19.08-26.08,19.08-19.8,0-29.7-10.87-29.7-32.36,0-18.35,10.51-30.18,28.74-30.18s27.88,11.83,27.88,35.38ZM276,47.33c-.24-8.82-6-13-12.2-13s-11.47,4.83-12.07,13Z"/><path class="cls-2" d="M335.61,82.82v-36c0-9.17-2.65-11.71-10.14-11.71-8.21,0-12.19,4.59-12.19,13.64v34h-15.7V23.42h15v8.69c3.62-6.64,9.65-10.26,19.19-10.26,11.35,0,19.68,6.88,19.68,19.8V82.82Z"/><path class="cls-2" d="M395.49,82.82a23.24,23.24,0,0,1-1-5.31c-3.74,4.1-10,6.88-18,6.88-13.52,0-19.8-6.64-19.8-16.3C356.74,51,368.21,49,384,46.84c7.85-1.08,10-2.65,10-6.76,0-3.86-3.86-6.16-10-6.16-7.12,0-10,3.51-10.74,8.82H358.67c.24-12.32,7-20.89,26.08-20.89,18.83,0,25.35,8.45,25.35,23.42V82.82Zm-1.08-29.1c-1.57,1.57-4.35,2.42-10.14,3.51-8.94,1.69-11.84,4.22-11.84,9.29,0,4.47,2.66,6.64,7.61,6.64,8.09,0,14.13-5.91,14.25-12.92Z"/><path class="cls-2" d="M450.67,43.7h14.6V60.61c0,12.55-7.24,23.78-24,23.78C423.86,84.39,417,73.28,417,60.48V7.36h15.45V23.42h32.84V34.53H432.43V58.92c0,7.48,2.66,11.83,9.06,11.83s9.18-4.23,9.18-11.59Z"/><path class="cls-2" d="M470.34,53.12c0-18.83,11.71-31.27,30.54-31.27,18.6,0,30.19,12.32,30.19,31.27s-11.71,31.27-30.19,31.27C481.69,84.39,470.34,71.59,470.34,53.12Zm44.91,0c0-12.07-4.83-18-14.37-18s-14.36,5.92-14.36,18,4.83,18.11,14.36,18.11S515.25,65.19,515.25,53.12Z"/><path class="cls-2" d="M536.74,82.82V23.42h14.73v7.12c5.19-8,11.23-8.69,17.62-8.69h2.06V37.91a26.6,26.6,0,0,0-4.35-.36c-9.66,0-14.37,4.83-14.37,14.36V82.82Z"/></g></g></svg>